<?xml version="1.0" encoding="UTF-8"?>
<svg id="Capa_2" xmlns="http://www.w3.org/2000/svg" version="1.1" viewBox="0 0 395 239.9">
  <!-- Generator: Adobe Illustrator 29.8.2, SVG Export Plug-In . SVG Version: 2.1.1 Build 3)  -->
  <defs>
    <style>
      .st0 {
        fill: #214b22;
      }
    </style>
  </defs>
  <g id="Capa_1-2">
    <g>
      <path class="st0" d="M285.5,69.3c-17.5-5.4-37.5-.7-52.9,8.3-2,1.1-3.9,2.2-5.7,3.4,7.1-7,13.7-14.4,19.9-20.1,4.7-4.8,9.7-9.2,14.3-14,.9-1,.2-2.6-1.1-2.5-14.5.6-27.4,7.7-38,17.4-1.2,1.1-3.1-.2-2.4-1.7,0,0,0,0,0,0,6.1-13.2,12.6-25.3,17.4-39.4.4-1.3-1-2.5-2.2-1.8-13,7.8-23.4,20-30,33.9,0-.3,0-.6,0-.9.9-16.7,4.4-33.1,4-50.3,0-1.5-1.9-2-2.8-.8-7.8,11.6-13.2,24.5-15.7,38.3-1.2,9-1.8,17.3,2.6,23.8.2.3.5.7.7,1,1.6,2.2,3.1,4.4,4.6,6.7,1.7,2.7,2.7,5.6,2.4,8.7-.4,5-2.9,9-7.8,11.2-1.6.7-3.2,1-4.9,1-1.6,0-3.3-.3-4.9-1-4.9-2.2-7.3-6.1-7.8-11.2-.3-3.2.8-6.1,2.4-8.7,1.4-2.3,3-4.5,4.6-6.7.2-.3.5-.6.7-1,4.4-6.5,3.9-14.8,2.6-23.8-2.4-13.8-7.9-26.7-15.7-38.3-.8-1.2-2.7-.6-2.8.8-.4,17.2,3.1,33.6,4,50.3,0,.3,0,.6,0,.9-6.6-14-17.1-26.1-30-33.9-1.2-.7-2.6.5-2.2,1.8,4.8,14,11.4,26.2,17.4,39.4,0,0,0,0,0,0,.7,1.5-1.1,2.9-2.4,1.7-10.6-9.7-23.5-16.8-38-17.4-1.3,0-2.1,1.6-1.1,2.5,4.7,4.8,9.6,9.2,14.3,14,6.2,5.7,12.8,13,19.9,20.1-1.8-1.1-3.7-2.3-5.7-3.4-15.4-8.9-35.4-13.7-52.9-8.3-1.4.4-1.4,2.3-.1,2.8,7.3,2.9,14.7,5.6,21.7,8.9,7.8,3.6,15.1,7.6,22.8,11.9,7.9,4.5,17.1,9.3,26.7,12.2,7.1,2.6,16.3,4.1,26.2,4.1s19.1-1.5,26.2-4.1c9.6-2.8,18.8-7.7,26.7-12.2,7.7-4.3,15-8.3,22.8-11.9,7-3.3,14.4-6,21.6-8.9,1.3-.5,1.2-2.4-.1-2.8"/>
      <path class="st0" d="M66.6,121.2h-10.2c-1.3,0-2.3.8-2.6,2.2l-16.4,61c-1.1,4.7-4.3,4.7-5.4,0l-16.4-61c-.3-1.3-1.3-2.2-2.6-2.2H2.8c-1.6,0-2.8,1.5-2.8,3.4v111.8c0,1.9,1.3,3.4,2.8,3.4h9.7c1.6,0,2.8-1.5,2.8-3.4v-47.6c0-2.5,4-3.1,4.4-.5l7.1,49c.3,1.5,1.3,2.5,2.6,2.5h10.5c1.3,0,2.3-1,2.6-2.5l7.1-49c.4-2.5,4.4-2,4.4.5v47.6c0,1.9,1.3,3.4,2.8,3.4h9.7c1.6,0,2.8-1.5,2.8-3.4v-111.8c0-1.9-1.3-3.4-2.8-3.4"/>
      <path class="st0" d="M107.4,208.7h-7.4c-3.6,0-5.3-2.5-4.4-6.8l5-24.6c1.3-5.9,5-5.9,6.3,0l5.1,24.6c.8,4.2-.8,6.8-4.6,6.8M111.6,123.8c-.3-1.5-1.3-2.5-2.6-2.5h-10.5c-1.3,0-2.3,1-2.6,2.5l-22.3,111.5c-.4,2.5,1,4.6,3.1,4.6h9.1c1.3,0,2.3-1,2.6-2.5l1.1-5.2c.7-3.6,2.6-5.2,5.6-5.2h17.3c3,0,4.8,1.7,5.6,5.2l.4,1.9c.6,2.7.7,5.4,2.8,5.9h9.5c2.1,0,3.6-2,3.1-4.6l-22.3-111.5h0Z"/>
      <path class="st0" d="M166.6,121.2h-9.4c-1.3,0-2.3.8-2.6,2.2l-6,23.7c-1.1,4.7-4.3,4.7-5.4,0l-6-23.7c-.3-1.3-1.3-2.2-2.6-2.2h-9.4c-2.3,0-3.7,2.4-3,4.9l15.1,59.8c.6,2.2.7,3.9.7,6.3v44.2c0,1.9,1.3,3.4,2.9,3.4h10c1.6,0,2.8-1.5,2.8-3.4v-44.2c0-2.4.1-4.1.7-6.3l15.1-59.8c.7-2.5-.7-4.9-3-4.9"/>
      <path class="st0" d="M191.8,208.7h-7.4c-3.6,0-5.3-2.5-4.4-6.8l5-24.6c1.3-5.9,5-5.9,6.3,0l5.1,24.6c.9,4.2-.9,6.8-4.6,6.8M195.9,123.8c-.3-1.5-1.3-2.5-2.6-2.5h-10.5c-1.3,0-2.3,1-2.6,2.5l-22.3,111.5c-.4,2.5,1,4.6,3.1,4.6h9.1c1.3,0,2.3-1,2.6-2.5l1.1-5.2c.7-3.6,2.6-5.2,5.6-5.2h17.4c3,0,4.8,1.7,5.6,5.2l.4,1.9c.6,2.7.7,5.4,2.8,5.9h9.5c2.1,0,3.6-2,3.1-4.6l-22.3-111.5h0Z"/>
      <path class="st0" d="M271.9,121.2h-8.2c-1.6,0-2.7,1.2-2.8,3.1l-3.1,36.1c-.3,3.7-4.1,3.9-4.6.2l-4.6-36.4c-.1-1.7-1.3-2.9-2.7-2.9h-5c-1.4,0-2.6,1.2-2.7,2.9l-4.6,36.4c-.4,3.7-4.3,3.6-4.6-.2l-3.1-36.1c-.1-1.9-1.3-3.1-2.8-3.1h-8.2c-2,0-3.3,1.7-3,4.1l10.7,111.5c.1,1.7,1.3,2.9,2.7,2.9l7.8.2c1.4,0,2.6-1.2,2.7-2.9l5.1-43.6c.6-4.4,4.3-4.4,4.8,0l5.3,43.6c.1,1.7,1.3,2.9,2.7,2.9l7.8-.2c1.4,0,2.6-1.2,2.7-2.9l10.7-111.5c.3-2.4-1-4.1-3-4.1"/>
      <path class="st0" d="M355.6,221.2h-11.8c-4.1,0-6.4-2.7-6.4-7.6v-89c0-1.9-1.3-3.4-2.9-3.4h-10c-1.6,0-2.8,1.5-2.8,3.4v111.8c0,1.9,1.3,3.4,2.8,3.4h31c1.6,0,2.8-1.5,2.8-3.4v-11.9c0-1.9-1.3-3.4-2.8-3.4"/>
      <path class="st0" d="M391.9,221.2h-7.5c-4.1,0-6.4-2.7-6.4-7.6v-89c0-1.9-1.3-3.4-2.9-3.4h-10c-1.6,0-2.9,1.5-2.9,3.4v111.8c0,1.9,1.3,3.4,2.9,3.4h26.7c1.6,0,2.8-1.5,2.8-3.4v-11.9c0-1.9-1.3-3.4-2.8-3.4"/>
      <path class="st0" d="M315.1,121.2h-33.3c-1.6,0-2.8,1.5-2.8,3.4v111.8c0,1.9,1.3,3.4,2.9,3.4h33.3c1.6,0,2.8-1.5,2.8-3.4v-11.9c0-1.9-1.3-3.4-2.8-3.4h-15.4c-3.3,0-5.1-2.2-5.1-6.1v-27.2c0-3.9,1.9-6.1,5.1-6.1h12.5c1.6,0,2.8-1.5,2.8-3.4v-11.9c0-1.9-1.3-3.4-2.8-3.4h-12.5c-3.3,0-5.1-2.2-5.1-6.1v-11.1c0-3.9,1.9-6.1,5.1-6.1h15.4c1.6,0,2.8-1.5,2.8-3.4v-11.9c0-1.9-1.3-3.4-2.8-3.4"/>
      <path class="st0" d="M389.5,126.5c-.2,0-.6,0-1.4,0h-.5v-1.8h.5c.7,0,1.2,0,1.4,0s.3.2.4.3.1.3.1.5,0,.3-.2.5c-.1.1-.2.2-.4.3M390.6,128.1c-.2-.2-.3-.4-.4-.5s-.2-.2-.5-.2c.5,0,1-.3,1.3-.6s.5-.7.5-1.2,0-.6-.2-.9c-.2-.3-.4-.5-.6-.6-.2-.1-.6-.2-1-.2-.1,0-.8,0-2,0h-1.3v6.4h1.3v-2.6h.3c.4,0,.7,0,.9.3.2.2.5.6.9,1.3l.5,1h1.6l-.8-1.3c-.3-.5-.4-.7-.5-.8"/>
      <path class="st0" d="M393.2,129.4c-.4.8-1,1.4-1.8,1.8s-1.6.6-2.4.6-1.6-.2-2.4-.6c-.8-.4-1.4-1-1.8-1.8-.4-.8-.6-1.6-.6-2.4s.2-1.7.7-2.4,1-1.4,1.8-1.8c.8-.4,1.5-.6,2.4-.6s1.6.2,2.4.6c.8.4,1.4,1,1.8,1.8.4.8.7,1.6.7,2.4s-.2,1.6-.6,2.4M394.2,124c-.5-1-1.3-1.7-2.2-2.2-1-.5-1.9-.8-3-.8s-2,.3-3,.8-1.7,1.3-2.2,2.2c-.5,1-.8,2-.8,3s.3,2,.8,3c.5.9,1.3,1.7,2.2,2.2,1,.5,2,.8,3,.8s2-.3,3-.8,1.7-1.3,2.2-2.2c.5-.9.8-1.9.8-3s-.3-2.1-.8-3"/>
    </g>
  </g>
</svg>