<?xml version="1.0" encoding="UTF-8"?>
<svg id="Capa_2" data-name="Capa 2" xmlns="http://www.w3.org/2000/svg" viewBox="0 0 394.99 118.91">
  <defs>
    <style>
      .cls-1 {
        fill: #214b22;
      }
    </style>
  </defs>
  <g id="Capa_1-2" data-name="Capa 1">
    <g>
      <path class="cls-1" d="M66.56.29h-10.24c-1.28,0-2.28.85-2.56,2.2l-16.35,61c-1.14,4.74-4.27,4.74-5.4,0L15.65,2.5c-.28-1.35-1.28-2.2-2.56-2.2H2.85C1.28.29,0,1.82,0,3.68v111.83c0,1.87,1.28,3.39,2.85,3.39h9.67c1.56,0,2.84-1.52,2.84-3.39v-47.61c0-2.54,3.98-3.05,4.41-.51l7.11,48.97c.28,1.52,1.28,2.54,2.56,2.54h10.52c1.28,0,2.27-1.02,2.56-2.54l7.11-48.97c.43-2.54,4.41-2.03,4.41.51v47.61c0,1.87,1.28,3.39,2.85,3.39h9.67c1.56,0,2.84-1.52,2.84-3.39V3.68c0-1.86-1.28-3.39-2.84-3.39"/>
      <path class="cls-1" d="M107.44,87.73h-7.4c-3.56,0-5.26-2.54-4.41-6.78l4.98-24.57c1.28-5.93,4.98-5.93,6.26,0l5.12,24.57c.85,4.23-.85,6.78-4.55,6.78M111.57,2.84c-.28-1.52-1.28-2.54-2.56-2.54h-10.52c-1.28,0-2.27,1.02-2.56,2.54l-22.33,111.49c-.43,2.54,1,4.57,3.13,4.57h9.1c1.28,0,2.28-1.02,2.56-2.54l1.14-5.25c.71-3.56,2.56-5.25,5.55-5.25h17.35c2.99,0,4.83,1.69,5.55,5.25l.43,1.86c.57,2.71.71,5.42,2.84,5.93h9.53c2.13,0,3.56-2.03,3.13-4.57L111.57,2.84Z"/>
      <path class="cls-1" d="M166.55.29h-9.39c-1.28,0-2.27.85-2.56,2.2l-5.97,23.72c-1.14,4.74-4.27,4.74-5.41,0l-5.97-23.72c-.28-1.35-1.28-2.2-2.56-2.2h-9.38c-2.28,0-3.7,2.37-2.99,4.91l15.08,59.81c.57,2.2.71,3.9.71,6.27v44.22c0,1.87,1.28,3.39,2.85,3.39h9.96c1.56,0,2.84-1.52,2.84-3.39v-44.22c0-2.37.14-4.07.71-6.27l15.07-59.81c.71-2.54-.71-4.91-2.99-4.91"/>
      <path class="cls-1" d="M191.78,87.73h-7.39c-3.56,0-5.26-2.54-4.41-6.78l4.98-24.57c1.28-5.93,4.98-5.93,6.26,0l5.12,24.57c.85,4.24-.85,6.78-4.55,6.78M195.9,2.84c-.28-1.52-1.28-2.54-2.56-2.54h-10.53c-1.28,0-2.27,1.02-2.56,2.54l-22.33,111.49c-.43,2.54,1,4.57,3.13,4.57h9.1c1.28,0,2.28-1.02,2.56-2.54l1.14-5.25c.71-3.56,2.56-5.25,5.55-5.25h17.35c2.99,0,4.84,1.69,5.55,5.25l.43,1.86c.57,2.71.71,5.42,2.84,5.93h9.53c2.13,0,3.56-2.03,3.13-4.57L195.9,2.84Z"/>
      <path class="cls-1" d="M271.88.29h-8.25c-1.56,0-2.7,1.19-2.84,3.05l-3.13,36.09c-.28,3.73-4.12,3.9-4.55.17l-4.55-36.43c-.14-1.69-1.28-2.88-2.7-2.88h-4.98c-1.42,0-2.56,1.19-2.7,2.88l-4.55,36.43c-.43,3.73-4.27,3.56-4.55-.17l-3.13-36.09c-.14-1.86-1.28-3.05-2.84-3.05h-8.25c-1.99,0-3.27,1.69-2.99,4.07l10.67,111.49c.14,1.7,1.28,2.88,2.7,2.88l7.82.17c1.42,0,2.56-1.19,2.7-2.88l5.12-43.55c.57-4.41,4.26-4.41,4.83,0l5.26,43.55c.14,1.69,1.28,2.88,2.7,2.88l7.82-.17c1.42,0,2.56-1.19,2.7-2.88l10.67-111.49c.28-2.37-.99-4.07-2.99-4.07"/>
      <path class="cls-1" d="M355.62,100.27h-11.8c-4.13,0-6.4-2.71-6.4-7.62V3.68c0-1.87-1.28-3.39-2.85-3.39h-9.96c-1.56,0-2.84,1.52-2.84,3.39v111.83c0,1.86,1.28,3.39,2.84,3.39h31c1.57,0,2.84-1.53,2.84-3.39v-11.86c0-1.86-1.28-3.39-2.84-3.39"/>
      <path class="cls-1" d="M391.87,100.27h-7.54c-4.13,0-6.4-2.71-6.4-7.62V3.68c0-1.87-1.28-3.39-2.85-3.39h-9.95c-1.57,0-2.85,1.52-2.85,3.39v111.83c0,1.86,1.28,3.39,2.85,3.39h26.74c1.56,0,2.84-1.53,2.84-3.39v-11.86c0-1.86-1.28-3.39-2.84-3.39"/>
      <path class="cls-1" d="M315.1.29h-33.28c-1.56,0-2.84,1.52-2.84,3.39v111.83c0,1.87,1.28,3.39,2.85,3.39h33.28c1.56,0,2.84-1.52,2.84-3.39v-11.86c0-1.87-1.28-3.39-2.84-3.39h-15.36c-3.27,0-5.12-2.2-5.12-6.1v-27.23c0-3.9,1.85-6.1,5.12-6.1h12.52c1.56,0,2.84-1.52,2.84-3.39v-11.86c0-1.86-1.28-3.39-2.84-3.39h-12.52c-3.27,0-5.12-2.2-5.12-6.1v-11.07c0-3.9,1.85-6.1,5.12-6.1h15.36c1.56,0,2.84-1.52,2.84-3.39V3.68c0-1.86-1.28-3.39-2.84-3.39"/>
      <path class="cls-1" d="M389.47,5.53c-.18.06-.65.09-1.39.09h-.53v-1.75h.53c.74,0,1.2.03,1.39.09.19.06.33.16.43.3.1.14.15.3.15.48s-.05.35-.16.49c-.1.14-.25.24-.43.3M390.59,7.18c-.18-.24-.33-.4-.43-.49-.1-.09-.25-.16-.45-.24.55-.08.97-.28,1.27-.61.3-.33.45-.72.45-1.18,0-.34-.08-.64-.24-.92-.16-.27-.36-.48-.6-.61-.24-.13-.57-.22-1-.25-.15-.01-.83-.02-2.04-.02h-1.3v6.4h1.3v-2.63h.34c.36,0,.66.09.9.27.24.18.54.62.9,1.32l.54,1.04h1.6l-.76-1.29c-.27-.46-.43-.72-.47-.78"/>
      <path class="cls-1" d="M393.17,8.44c-.43.77-1.03,1.36-1.79,1.79-.76.43-1.57.64-2.41.64s-1.64-.21-2.41-.64c-.76-.43-1.36-1.03-1.79-1.79-.43-.76-.64-1.57-.64-2.42s.22-1.66.66-2.44c.44-.78,1.04-1.37,1.8-1.78.76-.42,1.55-.62,2.38-.62s1.62.21,2.39.62c.76.41,1.36,1.01,1.8,1.78.44.78.66,1.59.66,2.44s-.21,1.65-.64,2.42M394.18,3c-.54-.97-1.29-1.71-2.24-2.22-.95-.52-1.94-.78-2.97-.78s-2.02.26-2.97.78-1.69,1.26-2.24,2.22c-.54.96-.81,1.97-.81,3.03s.26,2.05.8,3c.53.95,1.27,1.69,2.23,2.23.95.53,1.95.8,3,.8s2.05-.27,3-.8c.95-.53,1.69-1.27,2.23-2.23.53-.95.8-1.95.8-3s-.27-2.06-.81-3.03"/>
    </g>
  </g>
</svg>