<?xml version="1.0" encoding="UTF-8"?>
<svg id="Capa_2" data-name="Capa 2" xmlns="http://www.w3.org/2000/svg" viewBox="0 0 259.88 144.28">
  <defs>
    <style>
      .cls-1 {
        fill: #214b22;
      }
    </style>
  </defs>
  <g id="Capa_1-2" data-name="Capa 1">
    <path class="cls-1" d="M258.46,91.5c-23.16-7.12-49.59-.9-69.91,10.92-2.59,1.46-5.08,2.94-7.51,4.45,9.37-9.3,18.14-19,26.31-26.51,6.22-6.31,12.78-12.11,18.94-18.5,1.24-1.28.28-3.45-1.49-3.37-19.1.85-36.16,10.15-50.14,23.02-1.61,1.48-4.09-.33-3.13-2.3.01-.03.03-.07.05-.1,8.02-17.43,16.67-33.48,23.03-52.02.6-1.74-1.3-3.31-2.87-2.37-17.13,10.28-30.93,26.34-39.67,44.78.03-.4.04-.79.07-1.19,1.15-22.03,5.84-43.72,5.3-66.38-.05-1.92-2.56-2.66-3.64-1.07-10.34,15.34-17.49,32.36-20.73,50.61-1.64,11.91-2.31,22.89,3.44,31.48.3.43.6.86.9,1.28,2.12,2.96,4.13,5.82,6.04,8.9,2.18,3.53,3.55,7.37,3.18,11.54-.6,6.66-3.8,11.84-10.25,14.74-2.07.93-4.26,1.37-6.43,1.36-2.18,0-4.37-.43-6.43-1.36-6.44-2.9-9.65-8.07-10.25-14.74-.37-4.17.99-8.01,3.18-11.54,1.91-3.08,3.92-5.95,6.04-8.9.3-.42.6-.85.9-1.28,5.76-8.59,5.08-19.57,3.44-31.49-3.24-18.24-10.38-35.26-20.73-50.59-1.07-1.59-3.59-.86-3.63,1.07-.54,22.66,4.15,44.35,5.3,66.38.03.4.04.79.07,1.19-8.75-18.44-22.54-34.5-39.67-44.78-1.58-.94-3.47.63-2.87,2.37,6.37,18.54,15.01,34.59,23.03,52.02.01.03.03.07.05.1.96,1.97-1.52,3.78-3.13,2.3-13.98-12.87-31.04-22.16-50.14-23.02-1.78-.08-2.73,2.09-1.49,3.37,6.15,6.39,12.71,12.18,18.94,18.49,8.16,7.51,16.94,17.21,26.31,26.51-2.43-1.51-4.92-3-7.51-4.45-20.33-11.82-46.75-18.03-69.91-10.92-1.79.55-1.92,3.04-.18,3.74,9.61,3.87,19.4,7.42,28.59,11.79,10.33,4.73,19.96,10.06,30.16,15.76,10.45,5.99,22.6,12.34,35.28,16.09,9.39,3.37,21.48,5.4,34.67,5.4s25.27-2.03,34.67-5.4c12.68-3.75,24.83-10.1,35.28-16.09,10.21-5.7,19.84-11.02,30.16-15.76,9.19-4.37,18.98-7.91,28.59-11.79,1.74-.7,1.61-3.19-.18-3.74"/>
  </g>
</svg>